<svg width="145" height="27" viewBox="0 0 175 27" fill="none" xmlns="http://www.w3.org/2000/svg">
<path d="M21.628 26H18.592L17.8 15.737C17.47 11.711 17.283 8.62 17.239 6.464L12.322 23.426H9.385L4.204 6.431C4.204 9.181 4.061 12.36 3.775 15.968L3.016 26H0.0460001L1.927 3.263H6.151L10.936 19.796L15.49 3.263H19.747L21.628 26Z" fill="#3300A1"/>
<path d="M38.5346 21.941C38.5346 22.645 38.6556 23.173 38.8976 23.525C39.1396 23.855 39.5026 24.108 39.9866 24.284L39.2936 26.396C38.3916 26.286 37.6656 26.033 37.1156 25.637C36.5656 25.241 36.1586 24.625 35.8946 23.789C34.7286 25.527 33.0016 26.396 30.7136 26.396C28.9976 26.396 27.6446 25.912 26.6546 24.944C25.6646 23.976 25.1696 22.711 25.1696 21.149C25.1696 19.301 25.8296 17.882 27.1496 16.892C28.4916 15.902 30.3836 15.407 32.8256 15.407H35.4986V14.12C35.4986 12.888 35.2016 12.008 34.6076 11.48C34.0136 10.952 33.1006 10.688 31.8686 10.688C30.5926 10.688 29.0306 10.996 27.1826 11.612L26.4236 9.401C28.5796 8.609 30.5816 8.213 32.4296 8.213C34.4756 8.213 36.0046 8.719 37.0166 9.731C38.0286 10.721 38.5346 12.14 38.5346 13.988V21.941ZM31.4066 24.119C33.1446 24.119 34.5086 23.217 35.4986 21.413V17.42H33.2216C30.0096 17.42 28.4036 18.608 28.4036 20.984C28.4036 22.018 28.6566 22.799 29.1626 23.327C29.6686 23.855 30.4166 24.119 31.4066 24.119ZM52.3268 8.213C52.9428 8.213 53.5148 8.279 54.0428 8.411L53.4818 11.381C52.9538 11.249 52.4478 11.183 51.9638 11.183C50.8858 11.183 50.0168 11.579 49.3568 12.371C48.6968 13.163 48.1798 14.395 47.8058 16.067V26H44.7698V8.609H47.3768L47.6738 12.14C48.1358 10.842 48.7628 9.863 49.5548 9.203C50.3468 8.543 51.2708 8.213 52.3268 8.213ZM66.2773 25.208C65.1333 26 63.8353 26.396 62.3833 26.396C60.9093 26.396 59.7543 25.978 58.9183 25.142C58.1043 24.284 57.6973 23.052 57.6973 21.446V10.952H54.6613V8.609H57.6973V4.682L60.7333 4.319V8.609H64.8583L64.5283 10.952H60.7333V21.314C60.7333 22.216 60.8873 22.876 61.1953 23.294C61.5253 23.69 62.0643 23.888 62.8123 23.888C63.4943 23.888 64.2643 23.657 65.1223 23.195L66.2773 25.208ZM72.4591 8.609V26H69.4231V8.609H72.4591ZM70.9081 0.259999C71.5461 0.259999 72.0631 0.457999 72.4591 0.853999C72.8551 1.25 73.0531 1.745 73.0531 2.339C73.0531 2.933 72.8551 3.428 72.4591 3.824C72.0631 4.198 71.5461 4.385 70.9081 4.385C70.2921 4.385 69.7861 4.198 69.3901 3.824C68.9941 3.428 68.7961 2.933 68.7961 2.339C68.7961 1.745 68.9941 1.25 69.3901 0.853999C69.7861 0.457999 70.2921 0.259999 70.9081 0.259999ZM86.9206 8.213C88.5046 8.213 89.7366 8.686 90.6166 9.632C91.5186 10.578 91.9696 11.876 91.9696 13.526V26H88.9336V13.955C88.9336 12.723 88.7026 11.854 88.2406 11.348C87.7786 10.842 87.0966 10.589 86.1946 10.589C85.2706 10.589 84.4566 10.853 83.7526 11.381C83.0486 11.909 82.3886 12.668 81.7726 13.658V26H78.7366V8.609H81.3436L81.6076 11.183C82.2236 10.259 82.9826 9.533 83.8846 9.005C84.8086 8.477 85.8206 8.213 86.9206 8.213ZM102.792 8.213C103.98 8.213 105.047 8.378 105.993 8.708C106.939 9.038 107.841 9.533 108.699 10.193L107.412 12.107C106.62 11.601 105.861 11.227 105.135 10.985C104.431 10.743 103.683 10.622 102.891 10.622C101.901 10.622 101.12 10.831 100.548 11.249C99.9755 11.645 99.6895 12.195 99.6895 12.899C99.6895 13.603 99.9535 14.153 100.482 14.549C101.032 14.945 102.011 15.33 103.418 15.704C105.355 16.188 106.796 16.848 107.742 17.684C108.71 18.52 109.194 19.664 109.194 21.116C109.194 22.832 108.523 24.141 107.181 25.043C105.861 25.945 104.244 26.396 102.33 26.396C99.6895 26.396 97.5005 25.637 95.7625 24.119L97.3795 22.271C98.8535 23.393 100.482 23.954 102.264 23.954C103.408 23.954 104.31 23.723 104.97 23.261C105.652 22.777 105.993 22.128 105.993 21.314C105.993 20.72 105.872 20.247 105.63 19.895C105.388 19.521 104.97 19.202 104.376 18.938C103.782 18.652 102.913 18.355 101.769 18.047C99.9205 17.563 98.5785 16.914 97.7425 16.1C96.9285 15.286 96.5215 14.252 96.5215 12.998C96.5215 12.096 96.7855 11.282 97.3135 10.556C97.8635 9.808 98.6115 9.236 99.5575 8.84C100.526 8.422 101.604 8.213 102.792 8.213ZM127.127 3.263C130.559 3.263 133.309 4.066 135.377 5.672C137.467 7.256 138.512 10.204 138.512 14.516C138.512 18.718 137.467 21.688 135.377 23.426C133.309 25.142 130.79 26 127.82 26H122.375V3.263H127.127ZM125.51 5.771V23.525H128.051C130.163 23.525 131.879 22.876 133.199 21.578C134.519 20.28 135.179 17.926 135.179 14.516C135.179 12.118 134.838 10.281 134.156 9.005C133.474 7.707 132.605 6.849 131.549 6.431C130.493 5.991 129.25 5.771 127.82 5.771H125.51ZM156.582 16.793C156.582 17.299 156.56 17.816 156.516 18.344H145.428C145.56 20.258 146.044 21.666 146.88 22.568C147.716 23.47 148.794 23.921 150.114 23.921C150.95 23.921 151.72 23.8 152.424 23.558C153.128 23.316 153.865 22.931 154.635 22.403L155.955 24.218C154.107 25.67 152.083 26.396 149.883 26.396C147.463 26.396 145.571 25.604 144.207 24.02C142.865 22.436 142.194 20.258 142.194 17.486C142.194 15.682 142.48 14.087 143.052 12.701C143.646 11.293 144.482 10.193 145.56 9.401C146.66 8.609 147.947 8.213 149.421 8.213C151.731 8.213 153.502 8.972 154.734 10.49C155.966 12.008 156.582 14.109 156.582 16.793ZM153.579 15.902C153.579 14.186 153.238 12.877 152.556 11.975C151.874 11.073 150.851 10.622 149.487 10.622C147.001 10.622 145.648 12.448 145.428 16.1H153.579V15.902ZM174.072 8.609L168.165 26H164.502L158.496 8.609H161.796L166.35 23.294L170.871 8.609H174.072Z" fill="black"/>
</svg>
